<?xml version="1.0" encoding="UTF-8" standalone="no"?>
<svg
   height="24"
   width="24"
   viewBox="0 0 24 24"
   version="1.1"
   id="svg2"
   sodipodi:docname="classroom_control_cart_94.svg"
   inkscape:version="1.3 (1:1.3+202307231459+0e150ed6c4)"
   xmlns:inkscape="http://www.inkscape.org/namespaces/inkscape"
   xmlns:sodipodi="http://sodipodi.sourceforge.net/DTD/sodipodi-0.dtd"
   xmlns="http://www.w3.org/2000/svg"
   xmlns:svg="http://www.w3.org/2000/svg">
  <sodipodi:namedview
     id="namedview2"
     pagecolor="#ffffff"
     bordercolor="#000000"
     borderopacity="0.25"
     inkscape:showpageshadow="2"
     inkscape:pageopacity="0.0"
     inkscape:pagecheckerboard="0"
     inkscape:deskcolor="#d1d1d1"
     inkscape:zoom="19.946304"
     inkscape:cx="9.3751705"
     inkscape:cy="8.8988917"
     inkscape:window-width="1918"
     inkscape:window-height="881"
     inkscape:window-x="0"
     inkscape:window-y="0"
     inkscape:window-maximized="1"
     inkscape:current-layer="g4" />
  <defs
     id="defs1">
    <style
       type="text/css"
       id="current-color-scheme">&#10;            .ColorScheme-Text {&#10;                color:#232629;&#10;            }&#10;            .ColorScheme-PositiveText {&#10;                color:#27ae60;&#10;            }&#10;        </style>
    <linearGradient
       id="linearGradient4058-1-8-2-8">
      <stop
         style="stop-color:#75a125;stop-opacity:1;"
         offset="0"
         id="stop4060-41-2-1-2" />
      <stop
         style="stop-color:#353520;stop-opacity:1"
         offset="1"
         id="stop4062-0-13-7-5" />
    </linearGradient>
    <linearGradient
       id="linearGradient5276-4-6">
      <stop
         id="stop5278-1-9"
         offset="0"
         style="stop-color:#ffffff;stop-opacity:0.54929578;" />
      <stop
         id="stop5280-65-6"
         offset="1"
         style="stop-color:#ffffff;stop-opacity:0;" />
    </linearGradient>
  </defs>
  <circle
     style="fill:#8ae234;stroke:#000000;stroke-width:1;stroke-dasharray:none;stroke-opacity:1;fill-opacity:1"
     id="path3-6"
     cx="12"
     cy="12"
     r="10" />
  <g
     id="g4"
     transform="translate(-13.334229,-4.7115403)">
    <g
       id="g5"
       transform="matrix(1.67,0,0,1.67,-30.705318,-11.869484)">
      <circle
         style="fill:#000000;stroke-width:2.26772"
         id="path3"
         cx="33.456841"
         cy="17.213638"
         r="4.5" />
      <g
         id="g2"
         transform="matrix(0.0390625,0,0,0.0390625,23.556615,7.6612607)"
         style="fill:#808080">
        <path
           d="m 256,370 c -70.7,0 -128,-57.3 -128,-128 0,-70.7 57.3,-128 128,-128 70.7,0 128,57.3 128,128 0,70.7 -57.3,128 -128,128 z m 0,-200 c 0,-8.3 1.7,-16.1 4.3,-23.6 -1.5,-0.1 -2.8,-0.4 -4.3,-0.4 -53,0 -96,43 -96,96 0,53 43,96 96,96 53,0 96,-43 96,-96 0,-1.5 -0.4,-2.8 -0.4,-4.3 -7.4,2.6 -15.3,4.3 -23.6,4.3 -39.8,0 -72,-32.2 -72,-72 z"
           id="path1"
           sodipodi:nodetypes="sssssscsssscss"
           style="fill:#808080" />
      </g>
    </g>
    <text
       xml:space="preserve"
       style="font-style:normal;font-variant:normal;font-weight:bold;font-stretch:normal;font-size:13.667px;line-height:0;font-family:Ro;-inkscape-font-specification:'Ro Bold';text-align:center;text-anchor:middle;fill:#ffffff;stroke-width:0.0285926"
       x="25.245384"
       y="21.522324"
       id="text2"><tspan
         sodipodi:role="line"
         id="tspan2"
         style="font-style:normal;font-variant:normal;font-weight:bold;font-stretch:normal;font-size:13.667px;font-family:Ro;-inkscape-font-specification:'Ro Bold';fill:#ffffff;stroke-width:0.0285926"
         x="25.245384"
         y="21.522324">15</tspan></text>
  </g>
</svg>
